<svg id="svg" xmlns="http://www.w3.org/2000/svg" xmlns:xlink="http://www.w3.org/1999/xlink" width="400" height="375.2212389380531" viewBox="0, 0, 400,375.2212389380531"><g id="svgg"><path id="path0" d="M318.950 17.948 C 308.184 35.651,243.859 99.115,236.681 99.115 C 228.336 99.115,228.278 103.459,236.525 110.923 C 244.550 118.185,260.823 107.752,275.349 86.032 C 280.303 78.626,288.871 67.334,294.390 60.939 C 299.909 54.544,304.425 47.551,304.425 45.400 C 304.425 40.735,313.741 32.902,324.779 28.285 C 330.056 26.078,332.743 21.938,332.743 16.017 C 332.743 3.949,326.972 4.757,318.950 17.948 M46.018 15.063 C 46.018 29.349,56.771 45.513,68.949 49.532 C 75.806 51.795,81.416 55.001,81.416 56.656 C 81.416 63.335,142.055 120.934,147.064 119.012 C 157.638 114.954,153.280 99.115,141.589 99.115 C 133.111 99.115,126.591 94.489,109.301 76.208 C 97.386 63.610,84.649 52.354,80.998 51.195 C 77.347 50.036,70.300 42.161,65.338 33.694 C 54.514 15.223,46.018 7.031,46.018 15.063 M320.022 46.555 C 318.636 48.797,319.875 52.381,322.775 54.519 C 330.739 60.392,333.975 86.606,327.409 92.056 C 324.502 94.468,322.124 98.529,322.124 101.080 C 322.124 103.631,319.219 106.640,315.667 107.767 C 307.064 110.497,288.362 130.250,291.453 133.341 C 292.796 134.684,299.683 133.022,306.757 129.648 C 324.313 121.277,330.350 127.253,317.409 140.193 C 304.445 153.157,305.354 156.773,325.253 171.380 C 342.910 184.342,350.442 187.008,350.442 180.298 C 350.442 172.204,342.778 162.832,336.159 162.832 C 328.653 162.832,326.097 150.298,333.125 147.955 C 335.281 147.237,337.518 137.148,338.095 125.537 C 338.673 113.925,340.285 94.480,341.678 82.326 C 344.981 53.497,330.508 29.588,320.022 46.555 M51.428 64.699 C 46.432 76.656,49.532 99.030,59.784 125.009 C 61.947 130.490,63.717 139.649,63.717 145.363 C 63.717 151.077,65.137 155.752,66.873 155.752 C 73.471 155.752,74.863 174.055,68.613 178.626 C 65.000 181.267,63.466 185.390,64.800 188.869 C 68.007 197.224,73.998 196.042,77.693 186.323 C 79.442 181.722,83.385 176.993,86.454 175.815 C 95.603 172.304,92.799 162.505,81.416 158.208 C 61.924 150.851,71.837 138.622,91.685 145.541 C 102.267 149.230,116.814 145.045,116.814 138.312 C 116.814 136.645,120.796 134.281,125.664 133.060 C 130.531 131.838,134.513 128.480,134.513 125.596 C 134.513 118.139,121.514 119.077,119.526 126.677 C 116.606 137.843,93.834 142.246,85.662 133.224 C 69.020 114.853,57.426 75.102,66.987 69.193 C 69.667 67.537,69.714 64.768,67.142 59.962 C 61.823 50.024,56.946 51.494,51.428 64.699 M189.381 98.786 C 173.356 100.686,171.576 101.798,170.569 110.540 C 169.488 119.925,158.168 130.559,143.656 135.823 C 138.876 137.557,137.979 139.394,140.621 142.037 C 143.263 144.679,146.510 144.645,151.600 141.921 C 155.574 139.794,162.743 138.053,167.530 138.053 C 176.376 138.053,180.531 132.304,180.531 120.064 C 180.531 111.466,183.490 111.495,192.740 120.184 C 200.075 127.075,200.119 127.061,208.339 115.065 C 215.664 104.373,216.277 94.596,209.526 96.131 C 208.180 96.437,199.115 97.632,189.381 98.786 M260.726 116.208 C 257.504 119.768,254.867 124.468,254.867 126.652 C 254.867 128.835,252.273 132.073,249.103 133.848 C 244.841 136.233,244.460 137.766,247.639 139.731 C 252.515 142.745,276.106 121.711,276.106 114.350 C 276.106 107.656,267.527 108.693,260.726 116.208 M213.698 124.779 C 214.872 129.159,215.854 134.044,215.881 135.633 C 215.956 140.106,234.674 136.826,236.236 132.066 C 236.997 129.747,232.818 125.366,226.950 122.332 C 212.835 115.032,211.169 115.340,213.698 124.779 M192.485 136.141 C 191.270 139.308,191.041 142.664,191.976 143.599 C 194.974 146.596,205.656 140.861,204.353 136.953 C 202.227 130.574,194.816 130.067,192.485 136.141 M264.307 143.953 C 257.958 150.302,262.528 161.795,273.451 166.949 C 294.605 176.929,300.142 168.624,283.458 151.940 C 273.003 141.485,268.608 139.652,264.307 143.953 M113.832 161.947 C 94.538 180.764,99.724 190.716,122.604 178.783 C 134.394 172.634,142.303 172.038,147.194 176.928 C 150.803 180.537,180.531 168.126,180.531 163.011 C 180.531 155.523,165.830 147.292,159.970 151.499 C 148.655 159.622,144.855 160.138,138.527 154.412 C 129.928 146.630,129.358 146.804,113.832 161.947 M228.950 152.638 C 225.403 154.701,217.438 156.665,211.251 157.004 C 203.883 157.407,200.351 159.267,201.018 162.393 C 201.577 165.019,199.580 168.979,196.580 171.194 C 183.473 180.870,183.398 198.310,196.440 203.759 C 203.051 206.522,209.986 211.509,211.852 214.843 C 215.615 221.567,226.549 215.877,226.549 207.195 C 226.549 201.980,212.589 188.750,209.363 190.908 C 208.107 191.748,205.578 188.166,203.743 182.947 C 200.052 172.451,210.660 159.873,217.522 166.610 C 219.372 168.426,223.596 169.912,226.910 169.912 C 230.525 169.912,234.541 174.514,236.948 181.416 C 241.598 194.748,247.639 189.660,247.733 172.334 C 247.837 153.262,240.716 145.795,228.950 152.638 M260.177 176.991 C 257.214 181.785,261.212 187.611,267.466 187.611 C 270.271 187.611,272.566 184.425,272.566 180.531 C 272.566 173.202,264.027 170.762,260.177 176.991 M283.156 196.492 C 275.754 204.371,272.613 205.342,260.922 203.367 C 240.368 199.894,213.420 228.683,222.468 244.447 C 228.073 254.214,227.946 254.791,217.879 265.299 C 203.456 280.354,202.046 280.084,170.410 256.233 C 169.711 255.706,172.207 250.803,175.957 245.337 C 184.518 232.858,185.875 214.754,178.697 208.797 C 171.369 202.715,167.384 207.530,172.700 216.042 C 181.094 229.483,176.802 231.294,164.594 219.461 C 154.147 209.336,148.717 207.062,130.081 205.006 C 117.917 203.665,105.177 201.421,101.770 200.020 C 97.575 198.295,95.575 199.103,95.575 202.523 C 95.575 205.300,91.593 211.035,86.726 215.267 C 81.858 219.499,77.876 225.095,77.876 227.703 C 77.876 232.923,52.246 254.867,46.149 254.867 C 40.634 254.867,34.065 271.065,36.746 278.053 C 39.813 286.045,54.867 276.706,54.867 266.812 C 54.867 261.696,57.916 259.925,68.184 259.076 C 79.352 258.152,82.263 256.153,86.220 246.686 C 88.815 240.478,93.575 233.212,96.797 230.540 C 100.019 227.868,102.655 223.673,102.655 221.218 C 102.655 212.336,117.637 212.452,128.291 221.417 C 133.959 226.186,142.261 230.088,146.741 230.088 C 164.497 230.088,164.686 239.178,147.352 259.468 C 135.970 272.791,132.274 279.531,134.906 282.163 C 140.516 287.772,152.212 283.325,152.212 275.582 C 152.212 265.896,163.236 262.605,167.916 270.895 C 169.987 274.564,176.858 282.309,183.186 288.107 C 200.770 304.218,188.295 322.614,168.556 309.681 C 160.202 304.207,158.928 304.239,148.873 310.179 C 140.463 315.147,137.190 315.597,133.840 312.247 C 128.090 306.497,123.894 306.842,123.894 313.065 C 123.894 320.101,130.696 323.651,142.460 322.755 C 151.356 322.077,152.153 322.898,150.189 330.723 C 148.985 335.521,149.881 345.148,152.181 352.116 L 156.362 364.785 203.845 364.031 C 229.960 363.617,251.327 362.757,251.327 362.122 C 251.327 361.486,249.336 357.716,246.903 353.744 C 243.002 347.378,243.796 345.392,253.604 336.978 C 267.454 325.096,273.109 297.345,261.679 297.345 C 260.002 297.345,259.635 299.965,260.863 303.167 C 262.220 306.702,260.593 310.820,256.721 313.650 C 253.215 316.215,248.552 321.910,246.360 326.307 C 235.001 349.092,192.112 358.801,172.159 343.106 C 159.318 333.006,159.659 324.404,172.786 327.288 C 178.656 328.577,186.737 327.401,192.480 324.421 C 199.881 320.581,204.588 320.263,212.092 323.095 C 223.253 327.308,234.947 324.311,232.775 317.795 C 231.982 315.416,227.620 312.593,223.081 311.522 C 203.684 306.943,221.627 265.487,243.006 265.487 C 250.620 265.487,252.275 272.863,245.734 277.646 C 239.745 282.025,239.782 282.441,246.489 286.031 C 254.787 290.472,271.415 283.633,269.823 276.435 C 269.195 273.596,271.229 272.788,275.550 274.160 C 279.235 275.329,286.727 274.585,292.199 272.504 C 301.078 269.128,302.993 269.784,310.028 278.607 C 319.928 291.023,317.819 294.647,302.379 291.750 C 292.659 289.927,290.265 290.605,290.265 295.181 C 290.265 298.586,293.213 300.885,297.578 300.885 C 308.459 300.885,318.584 307.390,318.584 314.380 C 318.584 321.953,299.576 343.363,292.852 343.363 C 286.248 343.363,271.288 359.670,273.947 363.971 C 275.198 365.996,281.043 366.283,288.193 364.670 C 294.862 363.166,304.428 362.721,309.451 363.681 C 317.421 365.205,318.584 364.226,318.584 355.989 C 318.584 334.565,330.174 321.707,339.312 332.992 L 345.246 340.320 353.696 332.992 C 358.343 328.961,364.197 325.664,366.704 325.664 C 373.085 325.664,375.313 320.920,371.687 315.054 C 369.744 311.910,363.583 310.389,354.866 310.904 C 338.620 311.862,324.531 300.601,332.281 292.851 C 335.690 289.443,339.534 290.209,350.403 296.464 C 366.086 305.491,372.391 301.595,360.822 290.026 C 355.211 284.414,350.595 282.978,343.033 284.491 C 329.918 287.114,322.124 284.051,322.124 276.276 C 322.124 264.841,310.976 259.339,287.611 259.241 C 275.442 259.190,265.487 260.575,265.487 262.318 C 265.487 264.061,263.894 265.487,261.947 265.487 C 260.000 265.487,258.407 263.871,258.407 261.897 C 258.407 259.923,253.284 253.730,247.024 248.136 C 234.829 237.241,237.041 226.549,251.489 226.549 C 254.995 226.549,262.501 222.647,268.169 217.877 C 282.856 205.519,315.044 219.974,315.044 238.927 C 315.044 255.685,333.157 272.008,337.643 259.292 C 338.844 255.885,340.792 250.998,341.971 248.431 C 343.402 245.316,341.930 244.139,337.544 244.891 C 332.353 245.781,330.973 243.788,330.973 235.398 C 330.973 223.293,340.895 219.544,354.152 226.640 C 361.749 230.705,361.935 233.773,355.775 253.408 C 353.695 260.040,354.616 260.628,364.757 259.139 C 387.568 255.791,371.912 208.850,347.985 208.850 C 340.714 208.850,332.011 206.143,328.067 202.655 C 321.255 196.629,321.128 196.725,323.431 206.195 C 325.159 213.297,324.462 215.929,320.855 215.929 C 314.193 215.929,308.903 208.961,307.419 198.230 C 305.711 185.884,293.916 185.039,283.156 196.492 M60.177 223.009 C 55.995 225.593,55.821 227.149,59.322 230.649 C 62.740 234.068,64.661 234.100,67.965 230.796 C 73.707 225.054,67.276 218.622,60.177 223.009 M111.504 243.973 C 104.530 246.699,104.535 246.775,111.891 249.114 C 120.166 251.745,130.973 248.775,130.973 243.869 C 130.973 240.086,121.316 240.138,111.504 243.973 M196.548 247.645 C 193.546 252.503,196.204 256.149,201.435 254.351 C 203.578 253.615,203.852 251.116,202.099 248.295 C 199.887 244.734,198.451 244.566,196.548 247.645 M91.150 267.158 C 83.634 277.484,83.426 281.049,90.019 286.521 C 95.764 291.289,100.959 284.513,103.178 269.356 C 104.861 257.852,98.738 256.733,91.150 267.158 M114.836 274.098 C 109.456 278.069,108.892 280.110,112.239 283.505 C 117.265 288.603,127.434 282.176,127.434 273.903 C 127.434 267.659,123.477 267.720,114.836 274.098 M65.684 279.327 C 64.589 281.098,64.587 284.875,65.679 287.719 C 66.799 290.638,65.139 293.861,61.868 295.116 C 57.553 296.772,56.645 299.941,58.312 307.531 C 60.154 315.919,58.850 318.960,50.940 324.723 C 44.273 329.579,42.048 333.596,43.675 337.837 C 46.848 346.106,53.741 343.184,60.177 330.843 C 63.097 325.243,68.621 317.987,72.452 314.719 C 78.383 309.658,78.713 307.928,74.673 303.061 C 70.893 298.506,70.817 296.276,74.299 292.080 C 76.702 289.185,77.743 284.406,76.613 281.461 C 74.322 275.490,68.730 274.398,65.684 279.327 M37.168 293.805 C 33.129 300.340,38.901 304.694,46.332 300.717 C 50.162 298.667,52.361 295.477,51.218 293.628 C 48.488 289.211,39.941 289.319,37.168 293.805 M104.279 301.120 C 102.996 303.197,102.833 305.783,103.918 306.868 C 106.830 309.780,116.814 305.234,116.814 300.996 C 116.814 296.192,107.267 296.286,104.279 301.120 M81.064 318.852 C 74.875 345.249,82.217 369.121,95.460 365.658 C 103.032 363.677,105.130 355.930,99.102 352.204 C 97.148 350.997,96.435 346.480,97.517 342.167 C 98.900 336.657,96.800 331.802,90.451 325.838 C 85.482 321.169,81.257 318.026,81.064 318.852 M358.268 348.750 C 355.757 351.628,348.074 353.982,341.194 353.982 C 331.186 353.982,328.923 355.221,329.877 360.177 C 330.534 363.584,333.040 366.212,335.447 366.018 C 337.854 365.823,347.893 365.425,357.757 365.133 C 375.114 364.619,375.655 364.289,374.571 354.898 C 373.309 343.962,365.134 340.880,358.268 348.750 " stroke="none" fill="#000000" fill-rule="evenodd"></path></g></svg>